<mxfile host="Electron" agent="Mozilla/5.0 (Windows NT 10.0; Win64; x64) AppleWebKit/537.36 (KHTML, like Gecko) draw.io/26.0.15 Chrome/132.0.6834.196 Electron/34.2.0 Safari/537.36" version="26.0.15">
  <diagram name="Page-1" id="qufCZb7tT4U1Z_Hz3Kcr">
    <mxGraphModel dx="1417" dy="820" grid="1" gridSize="10" guides="1" tooltips="1" connect="1" arrows="1" fold="1" page="1" pageScale="1" pageWidth="850" pageHeight="1100" math="0" shadow="0">
      <root>
        <mxCell id="0" />
        <mxCell id="1" parent="0" />
        <mxCell id="bj5du7l7CjBbhhtyli0l-1" value="" style="whiteSpace=wrap;html=1;fillColor=#e3c800;fontColor=#000000;strokeColor=#B09500;" vertex="1" parent="1">
          <mxGeometry x="240" y="120" width="410" height="380" as="geometry" />
        </mxCell>
        <mxCell id="bj5du7l7CjBbhhtyli0l-3" value="&lt;b&gt;roman_decimal_convert&lt;/b&gt;" style="text;html=1;align=center;verticalAlign=middle;whiteSpace=wrap;rounded=0;" vertex="1" parent="1">
          <mxGeometry x="385" y="120" width="60" height="30" as="geometry" />
        </mxCell>
        <mxCell id="bj5du7l7CjBbhhtyli0l-4" value="convert to decimal" style="ellipse;whiteSpace=wrap;html=1;fillColor=#1ba1e2;strokeColor=#006EAF;fontColor=#ffffff;" vertex="1" parent="1">
          <mxGeometry x="305" y="190" width="120" height="40" as="geometry" />
        </mxCell>
        <mxCell id="bj5du7l7CjBbhhtyli0l-15" value="validate roman numeral" style="ellipse;whiteSpace=wrap;html=1;fillColor=#e51400;fontColor=#ffffff;strokeColor=#B20000;" vertex="1" parent="1">
          <mxGeometry x="510" y="190" width="120" height="40" as="geometry" />
        </mxCell>
        <mxCell id="bj5du7l7CjBbhhtyli0l-5" value="display number" style="ellipse;whiteSpace=wrap;html=1;fillColor=#1ba1e2;strokeColor=#006EAF;fontColor=#ffffff;" vertex="1" parent="1">
          <mxGeometry x="325" y="270" width="120" height="40" as="geometry" />
        </mxCell>
        <mxCell id="bj5du7l7CjBbhhtyli0l-6" value="display decimal" style="ellipse;whiteSpace=wrap;html=1;fillColor=#0050ef;strokeColor=#001DBC;fontColor=#ffffff;" vertex="1" parent="1">
          <mxGeometry x="400" y="380" width="120" height="40" as="geometry" />
        </mxCell>
        <mxCell id="bj5du7l7CjBbhhtyli0l-7" value="display roman numeral" style="ellipse;whiteSpace=wrap;html=1;fillColor=#0050ef;strokeColor=#001DBC;fontColor=#ffffff;" vertex="1" parent="1">
          <mxGeometry x="260" y="380" width="120" height="40" as="geometry" />
        </mxCell>
        <mxCell id="bj5du7l7CjBbhhtyli0l-8" style="rounded=0;orthogonalLoop=1;jettySize=auto;html=1;entryX=0.642;entryY=0.975;entryDx=0;entryDy=0;entryPerimeter=0;" edge="1" parent="1" source="bj5du7l7CjBbhhtyli0l-6" target="bj5du7l7CjBbhhtyli0l-5">
          <mxGeometry relative="1" as="geometry" />
        </mxCell>
        <mxCell id="bj5du7l7CjBbhhtyli0l-9" style="rounded=0;orthogonalLoop=1;jettySize=auto;html=1;entryX=0.292;entryY=0.9;entryDx=0;entryDy=0;entryPerimeter=0;" edge="1" parent="1" source="bj5du7l7CjBbhhtyli0l-7" target="bj5du7l7CjBbhhtyli0l-5">
          <mxGeometry relative="1" as="geometry" />
        </mxCell>
        <mxCell id="bj5du7l7CjBbhhtyli0l-20" style="rounded=0;orthogonalLoop=1;jettySize=auto;html=1;exitX=0;exitY=0.3333333333333333;exitDx=0;exitDy=0;exitPerimeter=0;entryX=1;entryY=1;entryDx=0;entryDy=0;" edge="1" parent="1" source="bj5du7l7CjBbhhtyli0l-10" target="bj5du7l7CjBbhhtyli0l-15">
          <mxGeometry relative="1" as="geometry" />
        </mxCell>
        <mxCell id="bj5du7l7CjBbhhtyli0l-21" style="rounded=0;orthogonalLoop=1;jettySize=auto;html=1;exitX=0;exitY=0.3333333333333333;exitDx=0;exitDy=0;exitPerimeter=0;entryX=1;entryY=1;entryDx=0;entryDy=0;" edge="1" parent="1" source="bj5du7l7CjBbhhtyli0l-10" target="bj5du7l7CjBbhhtyli0l-4">
          <mxGeometry relative="1" as="geometry" />
        </mxCell>
        <mxCell id="bj5du7l7CjBbhhtyli0l-22" style="rounded=0;orthogonalLoop=1;jettySize=auto;html=1;exitX=0;exitY=0.3333333333333333;exitDx=0;exitDy=0;exitPerimeter=0;entryX=1;entryY=0.5;entryDx=0;entryDy=0;" edge="1" parent="1" source="bj5du7l7CjBbhhtyli0l-10" target="bj5du7l7CjBbhhtyli0l-5">
          <mxGeometry relative="1" as="geometry" />
        </mxCell>
        <mxCell id="bj5du7l7CjBbhhtyli0l-10" value="RomanTypeObj" style="shape=umlActor;verticalLabelPosition=bottom;verticalAlign=top;html=1;outlineConnect=0;" vertex="1" parent="1">
          <mxGeometry x="670" y="250" width="90" height="150" as="geometry" />
        </mxCell>
        <mxCell id="bj5du7l7CjBbhhtyli0l-17" style="rounded=0;orthogonalLoop=1;jettySize=auto;html=1;exitX=1;exitY=0.3333333333333333;exitDx=0;exitDy=0;exitPerimeter=0;entryX=0;entryY=0.5;entryDx=0;entryDy=0;" edge="1" parent="1" source="bj5du7l7CjBbhhtyli0l-12" target="bj5du7l7CjBbhhtyli0l-4">
          <mxGeometry relative="1" as="geometry" />
        </mxCell>
        <mxCell id="bj5du7l7CjBbhhtyli0l-18" style="rounded=0;orthogonalLoop=1;jettySize=auto;html=1;exitX=1;exitY=0.3333333333333333;exitDx=0;exitDy=0;exitPerimeter=0;entryX=0;entryY=0.5;entryDx=0;entryDy=0;" edge="1" parent="1" source="bj5du7l7CjBbhhtyli0l-12" target="bj5du7l7CjBbhhtyli0l-5">
          <mxGeometry relative="1" as="geometry" />
        </mxCell>
        <mxCell id="bj5du7l7CjBbhhtyli0l-12" value="User" style="shape=umlActor;verticalLabelPosition=bottom;verticalAlign=top;html=1;outlineConnect=0;" vertex="1" parent="1">
          <mxGeometry x="80" y="250" width="90" height="150" as="geometry" />
        </mxCell>
        <mxCell id="bj5du7l7CjBbhhtyli0l-16" value="&lt;span style=&quot;background-color: light-dark(rgb(227, 200, 0), rgb(237, 237, 237));&quot;&gt;Include&lt;/span&gt;" style="endArrow=block;endSize=16;endFill=0;html=1;rounded=0;exitX=1;exitY=0.5;exitDx=0;exitDy=0;entryX=0;entryY=0.5;entryDx=0;entryDy=0;" edge="1" parent="1" source="bj5du7l7CjBbhhtyli0l-4" target="bj5du7l7CjBbhhtyli0l-15">
          <mxGeometry width="160" relative="1" as="geometry">
            <mxPoint x="420" y="260" as="sourcePoint" />
            <mxPoint x="580" y="260" as="targetPoint" />
          </mxGeometry>
        </mxCell>
        <mxCell id="bj5du7l7CjBbhhtyli0l-23" value="Input roman numeral" style="text;html=1;align=center;verticalAlign=middle;resizable=0;points=[];autosize=1;strokeColor=none;fillColor=none;rotation=-35;" vertex="1" parent="1">
          <mxGeometry x="160" y="238" width="130" height="30" as="geometry" />
        </mxCell>
        <mxCell id="bj5du7l7CjBbhhtyli0l-24" value="requests to" style="text;html=1;align=center;verticalAlign=middle;resizable=0;points=[];autosize=1;strokeColor=none;fillColor=none;rotation=-5;" vertex="1" parent="1">
          <mxGeometry x="200" y="273" width="80" height="30" as="geometry" />
        </mxCell>
        <mxCell id="bj5du7l7CjBbhhtyli0l-25" value="prints&amp;nbsp;" style="text;html=1;align=center;verticalAlign=middle;resizable=0;points=[];autosize=1;strokeColor=none;fillColor=none;rotation=5;" vertex="1" parent="1">
          <mxGeometry x="460" y="268" width="60" height="30" as="geometry" />
        </mxCell>
        <mxCell id="bj5du7l7CjBbhhtyli0l-26" value="converts" style="text;html=1;align=center;verticalAlign=middle;resizable=0;points=[];autosize=1;strokeColor=none;fillColor=none;rotation=15;" vertex="1" parent="1">
          <mxGeometry x="485" y="230" width="70" height="30" as="geometry" />
        </mxCell>
      </root>
    </mxGraphModel>
  </diagram>
</mxfile>
